<?xml version="1.0" encoding="utf-8"?>
<!-- Generator: Adobe Illustrator 26.0.3, SVG Export Plug-In . SVG Version: 6.00 Build 0)  -->
<svg version="1.1" id="_x2018_лой_x5F_1" xmlns="http://www.w3.org/2000/svg" xmlns:xlink="http://www.w3.org/1999/xlink"
	 x="0px" y="0px" viewBox="0 0 3000 2000" style="enable-background:new 0 0 3000 2000;" xml:space="preserve">
<style type="text/css">
	.st0{fill:#FFFFFF;}
	.st1{fill:#EBF3FA;}
	.st2{fill:#DCE8FF;}
	.st3{opacity:0.7;fill:#9FBDFF;}
	.st4{fill:#DFEBFD;}
	.st5{opacity:0.5;fill:#C5DDFF;}
	.st6{fill:#9FC1F4;}
	.st7{fill:#F78E48;}
	.st8{fill:#163560;}
	.st9{fill:#F78248;}
	.st10{fill:#1F4777;}
	.st11{fill:#E06832;}
	.st12{fill:#FFB27D;}
	.st13{fill:#F1A34F;}
	.st14{fill:#D86713;}
	.st15{fill:#739AF0;}
	.st16{fill:#5283DB;}
	.st17{fill:#133054;}
	.st18{fill:#1C468A;}
	.st19{fill:#233862;}
	.st20{fill:#E8945B;}
	.st21{fill:#2E3552;}
</style>
<rect class="st0" width="3000" height="2000"/>
<path class="st1" d="M451.21,1832.55c0,0-305.03-312.85-110.78-680.74c194.26-367.89,454.92-182.76,442.45-611.03
	c-12.47-428.27,599.79-464.86,794.63-340.61c194.84,124.25,193.62,273.81,595.95,224.46s479.04,363.18,374.31,573.38
	c-148.61,298.23,412.07,249.23,58.59,835.28L451.21,1832.55z"/>
<path class="st2" d="M2340.44,796.16c0,30.44-2.74,60.27-8.01,89.22c-12.65,69.48-39.78,133.9-78.18,190.04
	c-89.2,130.46-239.18,216.08-409.15,216.08c-202.19,0-376.09-121.12-453.06-294.8c-10.16-22.88-18.63-46.68-25.23-71.24
	c-11.14-41.21-17.07-84.58-17.07-129.3c0-36.17,3.88-71.46,11.24-105.41c0.07-0.4,0.17-0.77,0.25-1.16
	c20.58-93.89,67.8-177.78,133.33-243.41c18.58-18.63,38.65-35.78,60.02-51.27c10.18-7.39,20.68-14.41,31.43-21
	c75.36-46.38,164.09-73.11,259.1-73.11c12.6,0,25.08,0.47,37.43,1.41c17.45,1.29,34.62,3.48,51.49,6.55
	c71.06,12.87,136.81,40.92,193.84,80.65h0.03c35.53,24.73,67.65,53.99,95.55,86.98c14.65,17.32,28.14,35.65,40.33,54.9
	c7.58,11.98,14.68,24.29,21.25,36.94c15.79,30.39,28.49,62.64,37.76,96.32C2334.29,706.44,2340.44,750.59,2340.44,796.16z"/>
<path class="st3" d="M1676.81,574.42c-19.77,31.31,8.25,85.67-51.05,70.84s-95.55-21.42-98.84,11.51
	c-3.31,32.96,44.48,32.96,44.48,67.55c0,34.59-21.42,46.03-54.36,29.6c-32.96-16.43-42.42-40.33-80.72-25.5
	c-38.3,14.83-60.54,4.94-69.19-24.71c-1.53-5.21-3.66-9.44-6.15-12.97c0.07-0.4,0.17-0.77,0.25-1.16
	c20.58-93.89,67.8-177.78,133.33-243.41c18.58-18.63,38.65-35.78,60.02-51.27c10.18-7.39,20.68-14.41,31.43-21
	c15.44,0.57,33.9,6.42,49.64,25.9c34.59,42.85,57.65,21.42,49.42,70.84c-8.25,49.42,4.94,56.02,32.94,54.36
	c28-1.66,60.96-1.66,64.24,19.77C1785.53,566.19,1696.57,543.11,1676.81,574.42z"/>
<path class="st3" d="M1881.89,870.92c0,0-43.65,14-55.18-16.47s1.65-37.06-37.06-46.12c-38.71-9.06-42-35.42-66.71-32.12
	c-24.71,3.29-12.35,13.18-41.18,34.59c-28.83,21.41-55.18,11.53-54.36,51.06c0.82,39.53,43.65,45.71,52.3,71.66
	c8.65,25.94-6.18,37.06,12.35,56.83c18.53,19.77,53.12,11.12,37.06,38.3c-16.06,27.18-40.77,48.18-28.42,90.19
	c12.35,42,3.71,44.48,24.71,74.13c21,29.65,61.77,39.53,67.95,19.77c6.18-19.77-28.42-45.71-17.3-65.48
	c11.12-19.77,29.65-6.18,37.06-35.83s37.48-29.65,39.95-50.24s-36.24-51.89-21.42-65.07c14.83-13.18,44.48,23.89,67.54-9.06
	s7.41-59.3,31.3-90.6C1954.37,865.16,1898.37,852.8,1881.89,870.92z"/>
<path class="st3" d="M2340.44,796.16c0,30.44-2.74,60.27-8.01,89.22c-12.65,69.48-39.78,133.9-78.18,190.04
	c-13.1,4.3-26.46,4.2-39.61-1.06c-61.77-24.71-16.06-91.42,8.65-124.78c24.71-33.36-38.3-18.53-84.01-49.42
	c-45.71-30.89,4.94-113.66-42.01-100.07c-46.95,13.59-103.78,30.89-130.96-14.83c-27.18-45.71,24.71-53.12,1.24-91.42
	c-23.47-38.3,13.59-60.54,60.54-64.24c46.95-3.71,40.77-37.06,98.84-42.01c58.07-4.94,56.83,69.18,121.07,64.24
	s61.35,9.88,61.35,9.88c4.62-0.12,9.12,0.84,13.42,2.82C2334.29,706.44,2340.44,750.59,2340.44,796.16z"/>
<path class="st3" d="M2285.02,568.22c-53.42,25.99-74.87-44.7-120.53-23.45c-46.03,21.42-37.98-19.77-74.2-46.13
	c-36.25-26.34-108.72,21.42-105.43-19.77c3.29-41.17,57.65-29.65,69.18-62.59c11.54-32.94,64.24-24.71,64.24-24.71
	c2.99-1.14,6.2-1.88,9.59-2.17c0,0,0-0.02,0.03,0c35.53,24.73,67.65,53.99,95.55,86.98c14.65,17.32,28.14,35.65,40.33,54.9
	C2271.35,543.26,2278.44,555.57,2285.02,568.22z"/>
<path class="st3" d="M1834.95,426.16c0,0,28-40.4-16.47-52.32c-44.48-11.92-43.65,3.68-78.25,0c-34.59-3.68-48.18,23.08-22.24,52.32
	c25.94,29.24,46.95,85.35,70.42,55.44C1811.89,451.69,1807.36,429.04,1834.95,426.16z"/>
<path class="st4" d="M2663.69,1599.82c19.7-62.8-81.33-103.77-81.33-103.77s-121.19,54.51-140.46,45.34
	c-19.27-9.17,94.51-66.83,94.51-66.83c-32.44-25.43-147.62-39.33-147.62-39.33s-64.24,112.87-80.66,99.24
	c-16.42-13.63,61.98-97.04,61.98-97.04c-39.87-11.33-96.04,7.76-96.04,7.76c-79.65,38.64-49.02,177.55-100.23,206.09h0
	c0,0-10.42,4.66-24.51,14.88l9.12,5.83c2.31-1.97,4.64-3.81,7-5.5c0.01-0.02,0.02-0.03,0.04-0.03c0.04-0.02,0.07-0.05,0.1-0.07
	c1.53-1.01,3.7-2.44,6.38-4.17c0,0,0.01,0,0.01-0.01c0-0.01,0.01,0,0.01-0.01c6.27-3.68,10.73-6.5,13.78-8.65
	c0.01-0.01,0.02-0.01,0.03-0.02c19.29-11.79,56.84-27.87,56.59-25.98c-5.76,43.44,68.76,98.88,117.96,117.74
	c49.2,18.86,38.07-5.52,27.37-40.39c-10.7-34.87-63.13-60.97-72.65-78.04c-9.51-17.07,16.67-11.34,44.24,9.41
	c27.58,20.75,23.55,59.01,67.55,93.4c44,34.38,135.97-30.93,135.97-30.93c-38.76-10.62-85.36-65.51-80.46-78.09
	c4.89-12.58,90.06,43.39,105.59,48.6C2603.47,1674.43,2643.99,1662.62,2663.69,1599.82z"/>
<path class="st4" d="M358.7,1379.82c9.4-83.91,149.2-79.68,149.2-79.68s114.01,126.73,141.37,125.95
	c27.37-0.78-76.32-127.38-76.32-127.38c51.24-13.05,193.63,30.29,193.63,30.29s16.95,165.74,43.28,158.24
	c26.33-7.49-22.5-145.99-22.5-145.99c52.67,7.35,108.7,58.83,108.7,58.83c73.47,86.6-34.41,233.77,10.91,293.78l0,0
	c0,0,9.81,10.86,21.06,30.15l-13.72,2.11c-1.69-3.51-3.47-6.87-5.37-10.08c0-0.03-0.02-0.04-0.04-0.06
	c-0.03-0.05-0.06-0.09-0.08-0.14c-1.27-1.98-3.08-4.79-5.33-8.2c0,0-0.01-0.01-0.01-0.01c0-0.01-0.01-0.01-0.01-0.02
	c-5.46-7.56-9.22-13.19-11.69-17.29c-0.01-0.01-0.02-0.03-0.02-0.04c-16.53-23.83-52.27-62.14-52.96-59.79
	c-15.73,53.96-131.9,80.45-199.41,77.11s-41.83-26.19-11.21-61.58c30.62-35.39,105.67-38.87,125.67-53.97s-13.69-21.94-56.8-11.86
	c-43.11,10.08-58.2,57.07-127.64,74.64c-69.44,17.57-143.56-106.71-143.56-106.71c50.99,7.6,134.11-32.69,134.88-49.99
	c0.77-17.3-128.18,4.29-149.09,2.36C390.74,1498.57,349.3,1463.72,358.7,1379.82z"/>
<g>
	<path class="st5" d="M2287.16,1438.96c0,0,36.21-129.17,115.89-197.21c10.59-9.04,26.71,0.28,24.28,13.99
		c-0.04,0.23-0.08,0.46-0.13,0.69C2422.67,1279.77,2331.73,1367.05,2287.16,1438.96z"/>
	<path class="st5" d="M2273.1,1475.37c0,0,92.83-154.04,218.95-208.92c7.69-3.35,16.92-0.26,20.55,7.3
		c2.36,4.92,2.65,12.09-2.47,22.4C2496.48,1323.66,2353.28,1401.12,2273.1,1475.37z"/>
</g>
<g>
	<path class="st5" d="M749.19,1297.54c0,0-36.21-129.17-115.89-197.21c-10.59-9.04-26.71,0.28-24.28,13.99
		c0.04,0.23,0.08,0.46,0.13,0.69C613.68,1138.35,704.62,1225.62,749.19,1297.54z"/>
	<path class="st5" d="M763.26,1333.94c0,0-92.83-154.04-218.95-208.92c-7.69-3.35-16.92-0.26-20.55,7.3
		c-2.36,4.92-2.65,12.09,2.47,22.4C539.88,1182.24,683.07,1259.7,763.26,1333.94z"/>
</g>
<g>
	<path class="st0" d="M1218.34,667.3l-9.93,7.12l-9.98-7.05c2.21-3.11,5.87-5.17,9.98-5.17
		C1212.51,662.21,1216.13,664.22,1218.34,667.3z"/>
	<g>
		<path class="st0" d="M1208.42,644.84c-9.98,0-18.81,4.96-24.16,12.55l6.3,4.43c3.96-5.61,10.5-9.26,17.86-9.26
			c7.31,0,13.79,3.61,17.75,9.14l6.28-4.5C1227.07,649.71,1218.3,644.84,1208.42,644.84z"/>
	</g>
	<g>
		<path class="st0" d="M1208.43,611.83c-21.12-0.01-39.8,10.48-51.13,26.53l6.3,4.43c9.94-14.04,26.33-23.25,44.82-23.24
			c18.34,0.01,34.62,9.07,44.58,22.94l6.25-4.5C1247.92,622.16,1229.37,611.84,1208.43,611.83z"/>
	</g>
	<g>
		<path class="st0" d="M1208.43,629.89c-15.02,0-28.35,7.43-36.46,18.82l6.3,4.43c6.72-9.39,17.73-15.53,30.16-15.53
			c12.32,0,23.25,6.05,29.99,15.32l6.25-4.47C1236.54,637.21,1223.32,629.9,1208.43,629.89z"/>
	</g>
</g>
<g>
	<path class="st6" d="M1341.02,442.42c0,0-43.07-20.69-98.72-9.33c0,0,63.65-4.35,101.4,36.05c0,0,26.39-40.48,70.03-49.76
		C1413.72,419.39,1381.21,415.51,1341.02,442.42z"/>
	<path class="st6" d="M1219.64,422.92c0,0-33.22-16.2-76.31-7.66c0,0,49.25-3.07,78.26,28.34c0,0,20.6-31.18,54.38-38.17
		C1275.97,405.44,1250.84,402.29,1219.64,422.92z"/>
	<path class="st6" d="M1112.49,408.15c0,0-30.84-13.46-69.7-4.03c0,0,44.68-4.69,72.27,22.76c0,0,17.53-29.16,48-36.81
		C1163.05,390.08,1140.08,388.19,1112.49,408.15z"/>
	<path class="st6" d="M1052.42,377.17c0,0-21.64-7.13-47.26,1.68c0,0,29.83-5.98,50.17,10.79c0,0,9.98-20.77,30.04-27.85
		C1085.38,361.79,1069.76,361.96,1052.42,377.17z"/>
	<path class="st6" d="M1267.46,300.96c0,0-21.24-8.25-47.28-0.79c0,0,30.1-4.42,49.54,13.39c0,0,11.05-20.22,31.46-26.25
		C1301.17,287.33,1285.57,286.69,1267.46,300.96z"/>
	<path class="st6" d="M1372.16,374.36c0,0-29.64-14.95-68.45-7.79c0,0,44.27-2.17,69.95,26.39c0,0,18.87-27.77,49.3-33.63
		C1422.97,359.33,1400.43,356.21,1372.16,374.36z"/>
	<path class="st6" d="M1330.84,327.98c0,0-27.91-12.78-63.51-4.81c0,0,40.83-3.55,65.55,21.94c0,0,16.47-26.31,44.38-32.79
		C1377.25,312.32,1356.32,310.22,1330.84,327.98z"/>
</g>
<g>
	<path class="st7" d="M2106.71,751.65c0,49.54,83.43,128.74,83.43,128.74s83.43-79.19,83.43-128.74c0-49.54-37.35-89.72-83.43-89.72
		C2144.06,661.93,2106.71,702.1,2106.71,751.65z M2140.98,746.39c0-27.08,22.08-49.16,49.16-49.16c27.21,0,49.16,22.08,49.16,49.16
		c0,27.21-21.95,49.16-49.16,49.16C2163.06,795.55,2140.98,773.6,2140.98,746.39z"/>
</g>
<g>
	<path class="st7" d="M1821.82,436.3c0,47.59,80.14,123.66,80.14,123.66s80.14-76.07,80.14-123.66c0-47.59-35.88-86.18-80.14-86.18
		C1857.7,350.13,1821.82,388.72,1821.82,436.3z M1854.74,431.25c0-26.02,21.21-47.22,47.22-47.22c26.14,0,47.22,21.2,47.22,47.22
		c0,26.14-21.08,47.22-47.22,47.22C1875.95,478.47,1854.74,457.39,1854.74,431.25z"/>
</g>
<g>
	<path class="st8" d="M2320.91,1800.26h-197.68c-18.95,0-34.32-15.37-34.32-34.32v-4.49h263.74v7.07
		C2352.64,1786.05,2338.44,1800.26,2320.91,1800.26z"/>
	<path class="st9" d="M2361.69,1435.66v314.75c0,3.79-0.42,7.49-1.23,11.05h-36.92c-5.73,0-11.08,1.67-15.58,4.55
		c-2.79,1.77-5.24,4.01-7.26,6.61c-3.85,4.92-6.13,11.11-6.13,17.83v9.81h-144.63v-9.81c0-10.12-5.17-19.03-13.03-24.22
		c-2.22-1.47-4.66-2.64-7.26-3.45c-2.74-0.86-5.66-1.32-8.68-1.32h-39.9c-0.8-3.56-1.23-7.26-1.23-11.05v-314.75
		c0-27.54,22.3-49.85,49.81-49.85h182.21C2339.4,1385.8,2361.69,1408.12,2361.69,1435.66z"/>
	<g>
		<path class="st8" d="M2273.84,1385.63c-65.27-25.73-110.8-0.41-111.25-0.15l-2.35-4.1c0.49-0.28,12.12-6.88,32.23-10.22
			c18.47-3.07,47.88-3.82,83.11,10.07L2273.84,1385.63z"/>
	</g>
	<rect x="2106.72" y="1785.69" class="st8" width="19.09" height="26"/>
	<path class="st10" d="M2102.69,1815.63c0-7.51,6.08-13.59,13.58-13.59c7.5,0,13.58,6.09,13.58,13.59s-6.08,13.59-13.58,13.59
		C2108.77,1829.22,2102.69,1823.14,2102.69,1815.63z"/>
	<path class="st8" d="M2108.02,1815.63c0-4.56,3.69-8.25,8.24-8.25c4.55,0,8.25,3.69,8.25,8.25s-3.69,8.25-8.25,8.25
		C2111.71,1823.88,2108.02,1820.19,2108.02,1815.63z"/>
	<rect x="2303.05" y="1785.69" class="st8" width="19.09" height="26"/>
	<path class="st10" d="M2299.01,1815.63c0-7.51,6.08-13.59,13.58-13.59c7.5,0,13.58,6.09,13.58,13.59s-6.08,13.59-13.58,13.59
		C2305.09,1829.22,2299.01,1823.14,2299.01,1815.63z"/>
	<path class="st8" d="M2304.35,1815.63c0-4.56,3.69-8.25,8.24-8.25c4.55,0,8.25,3.69,8.25,8.25s-3.69,8.25-8.25,8.25
		C2308.04,1823.88,2304.35,1820.19,2304.35,1815.63z"/>
	<path class="st11" d="M2136.93,1385.8v380.43c-2.22-1.47-4.66-2.64-7.26-3.45V1385.8H2136.93z"/>
	<rect x="2187.79" y="1385.8" class="st11" width="7.26" height="414.46"/>
	<rect x="2242.03" y="1385.8" class="st11" width="7.26" height="414.46"/>
	<path class="st11" d="M2307.97,1385.8v380.21c-2.79,1.77-5.24,4.01-7.26,6.61V1385.8H2307.97z"/>
</g>
<g>
	<path class="st12" d="M1922.44,1222.84c0-0.54,7.95-16.98,5.42-18.24c-2.53-1.26-7.06-1.07-7.58,1.81
		C1919.74,1209.29,1922.44,1222.84,1922.44,1222.84z"/>
	<path class="st12" d="M1925.44,1232.65c0.01-1.61-1.86-26.22-6.01-31.12c-4.15-4.9-12.62-11.86-15.29-11.65
		c-2.67,0.21-13.09,14.06-9.96,24.68c3.13,10.61,16.36,24.98,16.36,24.98L1925.44,1232.65z"/>
	<g>
		<path class="st13" d="M1941.26,1202.84l-24.16,7.24c-0.8,0.24-1.65-0.21-1.89-1.02l-13.81-46.07c-0.24-0.8,0.21-1.65,1.02-1.89
			l24.16-7.24c0.8-0.24,1.65,0.21,1.89,1.02l13.81,46.07C1942.51,1201.75,1942.06,1202.6,1941.26,1202.84z"/>
		<path class="st14" d="M1934.98,1204.72l-21.92,6.57c-1.42,0.43-2.92-0.38-3.35-1.8l-13.14-43.83c-0.43-1.42,0.38-2.92,1.8-3.35
			l21.92-6.57c1.42-0.43,2.92,0.38,3.35,1.8l13.14,43.83C1937.21,1202.8,1936.4,1204.29,1934.98,1204.72z"/>
	</g>
	<path class="st12" d="M1901.64,1191.67c0,0,10.06-15.48,12.52-14.62c3.51,1.23-9.12,20.87-9.12,20.87s9.36-14.68,10.82-13.58
		c3.33,2.52-1.97,11.74-7.23,18.81c0,0,9.41-8.62,9.72-7.07c1.07,5.44-10.33,18.61-10.33,18.61l-6.38-14.56V1191.67z"/>
	<path class="st12" d="M1894.09,1206.05c0.49-1.89,2.94-38.86,3.99-35.36c1.05,3.51,3.55,22.89,3.55,22.89L1894.09,1206.05z"/>
	<path class="st15" d="M2054.67,1195.87c0,0-1.05,40.2-12.65,72.64c-9.16,25.62-24.89,46.4-51.88,38.73
		c-2.76-0.79-5.43-1.63-8.02-2.54c-0.02-0.01-0.03-0.01-0.03-0.01c-54.83-19.1-72.57-62.82-72.57-62.82
		c4.08-6.73,15.91-9.21,15.91-9.21c11.04,0.59,59.56,21.2,62.66,21.83c11.22,2.26,20.29-59.42,27.58-80.78
		c7.29-21.37,37.14-30.93,37.14-30.93L2054.67,1195.87z"/>
	<path class="st16" d="M2043.08,1239.54l-1.05,28.96c-9.16,25.62-24.89,46.4-51.88,38.73c-2.76-0.79-5.43-1.63-8.02-2.54
		c0.86,0.11,17.38,2.34,24.29-4.57c7.1-7.11,6.36-30.68,19.45-46.39C2038.96,1238.03,2043.08,1239.54,2043.08,1239.54z"/>
	<path class="st17" d="M2044.59,1769.24c0,0,13.49,12.31,10.86,21.06c-2.63,8.75-14.81,14.58-16.46,25.28
		c-1.65,10.69-8.23,16.53-14.15,16.53c-5.92,0-28.24,0-28.24,0s-4.36-7.53,6.17-9.79c10.53-2.27,14.5-14.84,13.84-26.5
		c-0.66-11.67,0.99-27.22,0.99-27.22l22.38-5.18L2044.59,1769.24z"/>
	<path class="st8" d="M1895.92,1829.87h83.16c3.26,0,5.94-2.58,6.03-5.84c0.13-4.87-0.27-11.96-2.97-17.94
		c-4.44-9.84-7.24-11.57,11.5-40.2c-5.64,5.8-20.84,3.15-33.67,1.42c-1.57,2.55-25.37,39.31-30.62,43.08
		C1923.56,1814.56,1897.7,1813.08,1895.92,1829.87z"/>
	<path class="st8" d="M2025.5,1368.71c0,0-60.3,113.77-76.68,176.42c-12.72,48.63,64.9,236.77,64.9,236.77s6.34-0.42,16.69-4.49
		c10.16-3.99,14.03-14.71,14.03-14.71s-4.6-134.53-20.31-199.61c-3.53-14.61,17.08-61.73,51.87-87.54
		c34.79-25.81,49.27-108.85,28.56-114.46C2083.85,1355.48,2025.5,1368.71,2025.5,1368.71z"/>
	<path class="st18" d="M2077.11,1336.41c0,0-63.38,232.36-82.61,284.54c-19.23,52.18-49.72,162.92-49.72,162.92
		s19.28,9.05,43.97,4.77c0,0,92.68-135.78,96.72-195.8c1.87-27.74,95.09-137.71,84.7-209.41L2077.11,1336.41z"/>
	<path class="st15" d="M2170.02,1408.91c0,0-13.49,6.8-37.33,8.8h-0.02c-27.3,2.29-68.19-1.73-117.99-29.46
		c0,0-13.89-11.45,3.18-60.12c12.92-36.85,19.21-114.55,34.98-185.36c0,0,51.15-16.05,92.18-2.18
		c31.35,10.6,28.23,58.72,34.02,108.83c0.54,4.68,1.16,9.37,1.89,14.05C2189.47,1318.32,2170.02,1408.91,2170.02,1408.91z"/>
	<path class="st19" d="M2034.79,1037.94c0,0,34.91-56.83,61.94-27.58c0,0,17.67,4.51,27.8,32.03c10.33,28.07-5.76,52.87-16.5,48.86
		c-6.89-2.57-10.11,9.31-10.11,9.31L2034.79,1037.94z"/>
	<path class="st19" d="M2091.38,1005.88c0,0,2.4-23.53,36.78-21.24c0,0-16.26,0.29-19.75,7.07c0,0,11.82-7.62,20.44-3.91
		c8.62,3.71,12.28,19.84,11.81,24.98c-0.47,5.14-7.09,21.18-12.88,22.02c-5.79,0.84-13.39-3.26-13.39-3.26L2091.38,1005.88z"/>
	<path class="st12" d="M2108.7,1139.15c-3.23-8.61-8.04-17.64-11.9-45.12l-2.06,0.72l-34.7,12.22c0,0,2.43,11.12,3.98,21.71
		c0.64,4.33,1.09,12.05,1.38,18.8c0.3,6.9,7.09,7.55,13.98,7.23C2097.73,1153.87,2107.84,1147.02,2108.7,1139.15z"/>
	<path class="st20" d="M2060.03,1106.98c0,0,2.43,11.12,3.98,21.71c19.91-3.44,27.85-23.2,30.72-33.93L2060.03,1106.98z"/>
	<path class="st19" d="M2097.86,1090.33c0,0,8.09-18.06,8.56-32.58c0.34-10.36-10.21-47.07-47.07-36.25c0,0-10.78,2.65-20.05,11.07
		c-7.38,6.7-17.45,20.31,0.45,51.09l5.02,10.55L2097.86,1090.33z"/>
	<path class="st12" d="M2054.8,1117.97c0,0,47.4-6.04,43.19-35.5c-4.21-29.46-0.93-50.09-31.38-47.48
		c-30.45,2.61-34.71,14.69-35.69,24.87S2042.36,1118.78,2054.8,1117.97z"/>
	<path class="st19" d="M2044.97,1037.37c0,0,17.93,32.7,38.54,34.94c20.61,2.25,28.46-4.32,28.46-4.32s-16.99-9.91-23.2-30.59
		C2088.78,1037.4,2052.37,1019.51,2044.97,1037.37z"/>
	<path class="st19" d="M2048.59,1039.71c0,0-8.56,9.11-9.83,16.95s-0.11,23.44-4.69,23.56c0,0-13.14-22.09-4.09-36.96
		C2039.57,1027.5,2048.59,1039.71,2048.59,1039.71z"/>
	<path class="st19" d="M2046.96,1041.14c0,0,14.44,34.86,41.19,42.84c0,0-28.28-18.62-33.85-42.21
		C2048.72,1018.19,2046.96,1041.14,2046.96,1041.14z"/>
	<path class="st16" d="M2170.02,1408.91c0,0-13.49,6.8-37.33,8.8h-0.02c0,0-19.59-24.56,2.27-52.09s-1.71-78.32,15.13-105.94
		c11.72-19.22,23.12-14.75,28.97-10.26c0.54,4.68,1.16,9.37,1.89,14.05C2189.47,1318.32,2170.02,1408.91,2170.02,1408.91z"/>
	<path class="st12" d="M2256.02,1368.08c0,0,2.91,6.77,6.97,7.22c6.63,0.74,19.25,6.29,21.23,7.47c5.37,3.19,5.01,17.46-0.36,18.8
		s-8.06-10.63-24.84-13.84c-5.69-1.09-13.99,2.85-17.35-10.79L2256.02,1368.08z"/>
	<path class="st15" d="M2145,1140.59c48.81,17.95,50.62,104.43,72.38,142.51c22.44,39.27,44.3,90.97,44.3,90.97
		s-0.39,1.55-8.76,3.95c-5.89,1.69-12.05,0.97-12.05,0.97s-46.12-41.72-58.65-58.18c-12.53-16.46-42.07-92.81-42.07-92.81
		S2125.63,1133.46,2145,1140.59z"/>
	<path class="st12" d="M2242.87,1380.32c0,0,1.19,5.81,8.38,10.51s12.97,9.4,13.67,6.49c0.7-2.91-4-6.04-5.12-11.42
		C2258.67,1380.54,2242.87,1380.32,2242.87,1380.32z"/>
</g>
<path class="st1" d="M1179.61,758.73c0,0,16.4-36.52,55.63-32.47c0,0,56.94-60.88,117.67-8.12c0,0,64.55-13.07,112.35,11.32
	c31.87,16.26,42.4,33.32,42.4,33.32L1179.61,758.73z"/>
<path class="st1" d="M1410.64,672.39c0.2-0.01,0.41-0.01,0.61-0.02c2.49-0.04,4.88-0.94,6.71-2.61c8.25-7.54,33.38-26.3,60.44-4.75
	c2.12,1.69,4.85,2.39,7.53,1.99c10.45-1.53,37.76-4,59.14,7.45c0.58,0.31,1.15,0.62,1.71,0.94c8.9,4.99,5.16,18.6-5.04,18.47
	l-130.81-1.7C1398.11,692,1397.83,672.87,1410.64,672.39z"/>
<g>
	<path class="st7" d="M2190.13,641.82c-1.15,0-2.12-0.88-2.23-2.04c0-0.04-0.36-3.96-1.1-10.9c-0.13-1.23,0.76-2.34,1.99-2.47
		c1.23-0.14,2.34,0.76,2.47,1.99c0.74,6.97,1.11,10.92,1.11,10.96c0.11,1.23-0.8,2.33-2.03,2.44
		C2190.27,641.82,2190.2,641.82,2190.13,641.82z M2187.83,620.05c-1.13,0-2.1-0.85-2.23-1.99c-0.37-3.28-0.79-6.89-1.27-10.8
		c-0.15-1.23,0.73-2.35,1.96-2.5c1.22-0.14,2.35,0.73,2.5,1.96c0.47,3.92,0.89,7.54,1.27,10.83c0.14,1.23-0.74,2.34-1.98,2.48
		C2188,620.04,2187.92,620.05,2187.83,620.05z M2185.23,598.44c-1.11,0-2.08-0.83-2.22-1.96c-0.43-3.43-0.9-7.02-1.39-10.77
		c-0.16-1.23,0.7-2.36,1.93-2.52c1.23-0.16,2.36,0.7,2.52,1.93c0.5,3.75,0.96,7.36,1.39,10.79c0.16,1.23-0.72,2.35-1.95,2.51
		C2185.42,598.43,2185.33,598.44,2185.23,598.44z M2182.39,576.89c-1.1,0-2.07-0.81-2.22-1.94c-0.48-3.48-0.98-7.07-1.51-10.75
		c-0.18-1.23,0.68-2.36,1.9-2.54c1.23-0.18,2.36,0.68,2.54,1.9c0.53,3.69,1.03,7.28,1.51,10.77c0.17,1.23-0.69,2.36-1.92,2.53
		C2182.59,576.88,2182.49,576.89,2182.39,576.89z M2179.31,555.38c-1.09,0-2.05-0.8-2.22-1.91c-0.52-3.51-1.06-7.08-1.63-10.73
		c-0.19-1.23,0.65-2.37,1.88-2.56c1.21-0.18,2.37,0.65,2.56,1.88c0.56,3.65,1.11,7.24,1.63,10.75c0.18,1.23-0.66,2.37-1.89,2.55
		C2179.53,555.37,2179.42,555.38,2179.31,555.38z M2175.99,533.91c-1.08,0-2.04-0.79-2.21-1.89c-0.56-3.52-1.15-7.09-1.75-10.7
		c-0.2-1.22,0.62-2.38,1.85-2.58c1.21-0.2,2.38,0.62,2.58,1.85c0.6,3.62,1.19,7.2,1.75,10.73c0.2,1.22-0.64,2.38-1.86,2.57
		C2176.23,533.91,2176.11,533.91,2175.99,533.91z M2172.43,512.5c-1.07,0-2.02-0.77-2.21-1.86c-0.61-3.52-1.23-7.09-1.88-10.68
		c-0.22-1.22,0.59-2.39,1.81-2.6c1.22-0.21,2.39,0.59,2.6,1.81c0.64,3.6,1.27,7.17,1.88,10.71c0.21,1.22-0.61,2.38-1.83,2.59
		C2172.69,512.48,2172.56,512.5,2172.43,512.5z M2168.61,491.12c-1.06,0-2-0.75-2.2-1.84c-0.65-3.53-1.33-7.08-2.01-10.65
		c-0.23-1.22,0.56-2.39,1.78-2.63c1.22-0.24,2.39,0.56,2.63,1.78c0.69,3.58,1.36,7.14,2.02,10.68c0.23,1.22-0.58,2.39-1.8,2.62
		C2168.88,491.11,2168.74,491.12,2168.61,491.12z M2164.5,469.81c-1.05,0-1.99-0.74-2.2-1.8c-0.7-3.53-1.42-7.07-2.16-10.62
		c-0.25-1.21,0.53-2.4,1.74-2.65c1.22-0.26,2.4,0.53,2.65,1.74c0.74,3.56,1.46,7.11,2.17,10.65c0.24,1.22-0.55,2.4-1.76,2.64
		C2164.79,469.79,2164.65,469.81,2164.5,469.81z M2160.09,448.55c-1.04,0-1.96-0.72-2.19-1.77c-0.76-3.51-1.53-7.03-2.32-10.55
		c-0.27-1.21,0.49-2.41,1.7-2.68c1.21-0.27,2.41,0.49,2.68,1.7c0.79,3.53,1.57,7.07,2.33,10.59c0.26,1.21-0.51,2.41-1.72,2.67
		C2160.4,448.54,2160.25,448.55,2160.09,448.55z M2155.34,427.4c-1.02,0-1.94-0.7-2.18-1.73c-0.82-3.52-1.66-7.05-2.51-10.57
		c-0.29-1.2,0.45-2.42,1.65-2.71c1.21-0.3,2.42,0.45,2.71,1.65c0.86,3.53,1.7,7.07,2.52,10.61c0.28,1.21-0.47,2.41-1.68,2.7
		C2155.68,427.38,2155.51,427.4,2155.34,427.4z M2150.21,406.28c-1,0-1.92-0.68-2.17-1.69c-0.89-3.5-1.79-7-2.72-10.48
		c-0.32-1.2,0.4-2.43,1.6-2.74c1.2-0.32,2.43,0.4,2.74,1.6c0.93,3.5,1.83,7.01,2.73,10.53c0.3,1.2-0.42,2.42-1.62,2.73
		C2150.58,406.26,2150.39,406.28,2150.21,406.28z M2144.65,385.3c-0.98,0-1.89-0.65-2.16-1.65c-0.97-3.49-1.95-6.96-2.95-10.42
		c-0.35-1.19,0.34-2.44,1.53-2.78c1.19-0.35,2.44,0.34,2.78,1.53c1.01,3.47,2,6.96,2.97,10.47c0.33,1.19-0.37,2.43-1.56,2.76
		C2145.05,385.28,2144.85,385.3,2144.65,385.3z M2138.6,364.46c-0.96,0-1.85-0.62-2.15-1.59c-1.06-3.46-2.14-6.94-3.23-10.33
		c-0.38-1.18,0.27-2.44,1.45-2.82c1.18-0.38,2.44,0.27,2.82,1.45c1.09,3.41,2.18,6.91,3.25,10.39c0.36,1.19-0.31,2.44-1.49,2.8
		C2139.04,364.43,2138.82,364.46,2138.6,364.46z M2131.97,343.79c-0.94,0-1.81-0.59-2.13-1.53c-1.16-3.44-2.36-6.87-3.55-10.21
		c-0.42-1.17,0.19-2.45,1.36-2.87c1.17-0.42,2.45,0.19,2.87,1.36c1.2,3.36,2.41,6.82,3.58,10.29c0.4,1.17-0.23,2.45-1.41,2.85
		C2132.45,343.76,2132.21,343.79,2131.97,343.79z M1911.69,336.57c-0.27,0-0.55-0.05-0.82-0.16c-1.15-0.45-1.72-1.75-1.27-2.91
		c0.77-1.98,1.55-3.93,2.33-5.85c0.46-1.15,1.77-1.7,2.92-1.24c1.15,0.47,1.7,1.77,1.24,2.92c-0.77,1.9-1.54,3.84-2.31,5.8
		C1913.44,336.03,1912.59,336.57,1911.69,336.57z M2124.65,323.37c-0.9,0-1.76-0.55-2.1-1.45c-1.3-3.42-2.63-6.8-3.95-10.05
		c-0.47-1.15,0.09-2.46,1.23-2.92c1.15-0.47,2.46,0.09,2.92,1.23c1.33,3.28,2.68,6.7,3.99,10.15c0.44,1.16-0.14,2.46-1.3,2.9
		C2125.18,323.32,2124.91,323.37,2124.65,323.37z M1918.18,320.75c-0.3,0-0.6-0.06-0.88-0.18c-1.14-0.49-1.67-1.81-1.18-2.95
		c1.46-3.39,2.94-6.74,4.41-9.95c0.52-1.13,1.85-1.62,2.97-1.11c1.13,0.52,1.62,1.85,1.11,2.98c-1.46,3.18-2.93,6.5-4.37,9.85
		C1919.87,320.24,1919.05,320.75,1918.18,320.75z M2116.47,303.27c-0.87,0-1.69-0.5-2.06-1.35c-1.47-3.37-2.97-6.68-4.45-9.82
		c-0.53-1.12-0.05-2.46,1.07-2.99c1.12-0.53,2.46-0.05,2.99,1.07c1.5,3.18,3.01,6.53,4.5,9.94c0.5,1.14-0.02,2.46-1.16,2.95
		C2117.08,303.21,2116.77,303.27,2116.47,303.27z M1927.21,301.06c-0.33,0-0.67-0.07-0.99-0.23c-1.11-0.55-1.57-1.89-1.03-3
		c1.63-3.32,3.3-6.59,4.95-9.71c0.58-1.09,1.94-1.51,3.03-0.93c1.09,0.58,1.51,1.94,0.93,3.03c-1.63,3.08-3.28,6.3-4.89,9.58
		C1928.83,300.6,1928.04,301.06,1927.21,301.06z M2107.22,283.64c-0.82,0-1.6-0.45-2-1.22c-1.67-3.26-3.38-6.45-5.09-9.48
		c-0.61-1.08-0.22-2.45,0.86-3.06c1.08-0.61,2.45-0.23,3.06,0.85c1.74,3.08,3.47,6.32,5.17,9.63c0.57,1.1,0.13,2.46-0.97,3.02
		C2107.91,283.56,2107.56,283.64,2107.22,283.64z M1937.37,281.94c-0.38,0-0.77-0.1-1.12-0.3c-1.07-0.62-1.44-1.99-0.82-3.07
		c1.86-3.22,3.76-6.37,5.65-9.35c0.66-1.05,2.05-1.36,3.1-0.7c1.05,0.66,1.36,2.05,0.69,3.1c-1.85,2.93-3.72,6.02-5.55,9.19
		C1938.9,281.53,1938.15,281.94,1937.37,281.94z M2096.55,264.76c-0.75,0-1.48-0.37-1.9-1.05c-1.95-3.11-3.95-6.11-5.94-8.91
		c-0.72-1.01-0.48-2.41,0.53-3.13c1.01-0.72,2.41-0.48,3.13,0.53c2.04,2.87,4.08,5.94,6.08,9.13c0.66,1.05,0.34,2.44-0.71,3.09
		C2097.37,264.65,2096.96,264.76,2096.55,264.76z M1948.98,263.66c-0.45,0-0.9-0.13-1.29-0.41c-1.01-0.71-1.26-2.11-0.54-3.13
		c2.16-3.07,4.37-6.02,6.56-8.78c0.77-0.97,2.18-1.13,3.15-0.36c0.97,0.77,1.13,2.18,0.36,3.15c-2.14,2.69-4.29,5.57-6.4,8.57
		C1950.38,263.33,1949.68,263.66,1948.98,263.66z M2083.98,247.13c-0.65,0-1.29-0.28-1.73-0.82c-2.33-2.84-4.72-5.49-7.09-7.9
		c-0.87-0.88-0.86-2.3,0.02-3.17c0.88-0.87,2.31-0.86,3.17,0.02c2.46,2.5,4.94,5.26,7.35,8.2c0.79,0.96,0.65,2.37-0.31,3.16
		C2084.99,246.96,2084.48,247.13,2083.98,247.13z M1962.48,246.74c-0.54,0-1.08-0.19-1.51-0.59c-0.91-0.84-0.98-2.26-0.14-3.17
		c2.55-2.78,5.16-5.41,7.77-7.81c0.91-0.84,2.33-0.78,3.17,0.13c0.84,0.91,0.78,2.33-0.13,3.17c-2.51,2.32-5.04,4.85-7.5,7.54
		C1963.69,246.5,1963.09,246.74,1962.48,246.74z M1978.43,232.14c-0.68,0-1.36-0.31-1.8-0.9c-0.74-0.99-0.54-2.4,0.45-3.14
		c3.03-2.27,6.15-4.32,9.26-6.1c1.08-0.62,2.45-0.24,3.06,0.83c0.62,1.08,0.24,2.45-0.83,3.06c-2.96,1.69-5.92,3.64-8.81,5.8
		C1979.37,231.99,1978.89,232.14,1978.43,232.14z M2068.78,231.82c-0.5,0-0.99-0.16-1.41-0.5c-2.81-2.27-5.69-4.27-8.55-5.96
		c-1.07-0.63-1.42-2-0.79-3.07c0.63-1.07,2-1.42,3.07-0.79c3.05,1.8,6.11,3.93,9.09,6.33c0.96,0.78,1.12,2.19,0.34,3.16
		C2070.08,231.53,2069.43,231.82,2068.78,231.82z M1997.2,221.49c-0.89,0-1.74-0.54-2.09-1.42c-0.46-1.15,0.11-2.46,1.26-2.91
		c3.48-1.38,7.07-2.49,10.66-3.3c1.2-0.28,2.41,0.48,2.68,1.69c0.27,1.21-0.49,2.41-1.7,2.68c-3.37,0.76-6.73,1.8-10,3.1
		C1997.76,221.44,1997.48,221.49,1997.2,221.49z M2050.25,221.06c-0.25,0-0.51-0.04-0.77-0.14c-1.67-0.61-3.36-1.12-5.05-1.54
		c-1.72-0.43-3.43-0.81-5.08-1.13c-1.22-0.24-2.01-1.42-1.77-2.64c0.24-1.22,1.42-2.01,2.64-1.77c1.72,0.34,3.5,0.74,5.29,1.18
		c1.84,0.45,3.69,1.02,5.5,1.68c1.17,0.42,1.77,1.71,1.34,2.88C2052.03,220.49,2051.17,221.06,2050.25,221.06z M2029.06,216.81
		c-0.06,0-0.12,0-0.17-0.01c-3.57-0.27-7.09-0.29-10.5-0.07c-1.24,0.08-2.31-0.85-2.39-2.09c-0.08-1.24,0.85-2.31,2.09-2.39
		c3.63-0.24,7.36-0.22,11.14,0.07c1.24,0.09,2.16,1.17,2.07,2.41C2031.21,215.91,2030.23,216.81,2029.06,216.81z"/>
</g>
<path class="st21" d="M2789.99,1837.24l-2555.72-0.88c-1.71,0-3.11-1.4-3.11-3.12l0-1.59c0-1.71,1.4-3.12,3.12-3.11l2555.72,0.88
	c1.71,0,3.11,1.4,3.11,3.12l0,1.6C2793.1,1835.84,2791.7,1837.25,2789.99,1837.24z"/>
<path class="st1" d="M1116.47,1004.37c0,0,51.43-13.01,97.34,17.29c0,0,11.19-13.33,40.33-10.03c29.14,3.3,37.17,30.22,37.17,30.22
	s101.97-33.67,152.45,50.5h-327.59L1116.47,1004.37z"/>
</svg>
