<svg xmlns="http://www.w3.org/2000/svg" width="10.903" height="19.388" viewBox="0 0 10.903 19.388">
  <defs>
    <style>
      .cls-1 {
        fill: #0e0e0e;
        opacity: 0.3;
      }
    </style>
  </defs>
  <path id="Icon_awesome-dollar-sign" data-name="Icon awesome-dollar-sign" class="cls-1" d="M7.923,8.838l-4.09-1.2a1.117,1.117,0,0,1,.314-2.189H6.658a2.311,2.311,0,0,1,1.3.4.59.59,0,0,0,.738-.076l1.318-1.287a.614.614,0,0,0-.068-.928A5.354,5.354,0,0,0,6.666,2.423V.606A.608.608,0,0,0,6.06,0H4.848a.608.608,0,0,0-.606.606V2.423H4.148A4.149,4.149,0,0,0,.02,6.952,4.335,4.335,0,0,0,3.193,10.61l3.881,1.136a1.117,1.117,0,0,1-.314,2.189H4.25a2.311,2.311,0,0,1-1.3-.4.59.59,0,0,0-.738.076L.9,14.9a.614.614,0,0,0,.068.928,5.354,5.354,0,0,0,3.275,1.136v1.818a.608.608,0,0,0,.606.606H6.06a.608.608,0,0,0,.606-.606V16.957a4.277,4.277,0,0,0,4-2.753A4.158,4.158,0,0,0,7.923,8.838Z" transform="translate(-0.003)"/>
</svg>
