<svg xmlns="http://www.w3.org/2000/svg" width="30.601" height="45.683" viewBox="0 0 30.601 45.683">
  <defs>
    <style>
      .cls-1 {
        fill: #fff;
        stroke: #000;
      }
    </style>
  </defs>
  <g id="Grupo_13" data-name="Grupo 13" transform="translate(-71.5 -5.495)">
    <path id="Icon_awesome-hotel" data-name="Icon awesome-hotel" class="cls-1" d="M25.871,2.957a.739.739,0,0,0,.739-.739V.739A.739.739,0,0,0,25.871,0H.739A.739.739,0,0,0,0,.739V2.218a.739.739,0,0,0,.739.739h.738V20.7H.739A.739.739,0,0,0,0,21.436v1.478a.739.739,0,0,0,.739.739H11.827v-3.7a.741.741,0,0,1,.739-.739h1.478a.741.741,0,0,1,.739.739v3.7H25.871a.739.739,0,0,0,.739-.739V21.436a.739.739,0,0,0-.739-.739h-.739V2.957ZM11.827,5.026a.636.636,0,0,1,.591-.591h1.774a.636.636,0,0,1,.591.591V6.8a.636.636,0,0,1-.591.591H12.418a.636.636,0,0,1-.591-.591V5.026Zm0,4.435a.636.636,0,0,1,.591-.591h1.774a.636.636,0,0,1,.591.591v1.774a.636.636,0,0,1-.591.591H12.418a.636.636,0,0,1-.591-.591ZM5.913,5.026A.636.636,0,0,1,6.5,4.435H8.279a.636.636,0,0,1,.591.591V6.8a.636.636,0,0,1-.591.591H6.5A.636.636,0,0,1,5.913,6.8Zm2.365,6.8H6.5a.636.636,0,0,1-.591-.591V9.461A.636.636,0,0,1,6.5,8.87H8.279a.636.636,0,0,1,.591.591v1.774A.636.636,0,0,1,8.279,11.827ZM8.87,17.74a4.435,4.435,0,0,1,8.87,0Zm11.827-6.5a.636.636,0,0,1-.591.591H18.331a.636.636,0,0,1-.591-.591V9.461a.636.636,0,0,1,.591-.591h1.774a.636.636,0,0,1,.591.591Zm0-4.435a.636.636,0,0,1-.591.591H18.331A.636.636,0,0,1,17.74,6.8V5.026a.636.636,0,0,1,.591-.591h1.774a.636.636,0,0,1,.591.591Z" transform="translate(72 27.025)"/>
    <path id="Icon_awesome-umbrella-beach" data-name="Icon awesome-umbrella-beach" class="cls-1" d="M5.33,6.324l4.717,1.718C11.673,4.275,14.03,1.376,16.469.017A13.823,13.823,0,0,0,4.988,5.182.74.74,0,0,0,5.33,6.324Zm6.11,2.225,11.017,4.011c1.652-5.608.864-10.7-1.969-11.733A3.092,3.092,0,0,0,19.421.642c-2.68,0-5.926,3.2-7.981,7.907ZM24.091,2.795a10.478,10.478,0,0,1,.61,2.55,19.8,19.8,0,0,1-.875,7.714l4.741,1.726a.739.739,0,0,0,1-.655A13.832,13.832,0,0,0,24.091,2.795Zm1.78,17.9H14.832l3-8.245-2.778-1.012L11.686,20.7H.739a.739.739,0,0,0-.739.74v1.479a.739.739,0,0,0,.739.74H25.871a.739.739,0,0,0,.739-.74V21.435A.739.739,0,0,0,25.871,20.7Z" transform="translate(72.033 6)"/>
  </g>
</svg>
